<svg xmlns="http://www.w3.org/2000/svg" viewBox="0 0 97.78 124">
  <path fill="#fff"
    d="M48.89,124C18.77,124-1,102.16,0,90.79S36.16,77.07,37.52,73.07c.45-1.33,1.79-6.92.69-7.79-5.05-3.93-7.85-7.77-9.14-16.32-.29-1.92.32-1.52-1-1s-2.29-2.59-3.84-4.48a10,10,0,0,1-2-7.37c.88-5.29,3.31.85,2.73-2.55-1.75-10.27-.65-20.06,6.47-26.65a25.74,25.74,0,0,1,35,0c7.12,6.59,8.22,16.38,6.46,26.65-.58,3.4,1.86-2.74,2.74,2.55a10.06,10.06,0,0,1-2,7.37c-1.56,1.89-2.53,5-3.84,4.48S69,47,68.71,49c-1.29,8.55-4.09,12.39-9.13,16.32-1.11.87.23,6.46.68,7.79,1.36,4,36.44,6.36,37.48,17.72S79,124,48.89,124Z" />
</svg>