<svg xmlns="http://www.w3.org/2000/svg" viewBox="0 0 64 64">
  <g>
    <path fill="#fff"
      d="M62.47,37H1.53A1.39,1.39,0,0,1,0,35.81V28.19A1.39,1.39,0,0,1,1.53,27H62.47A1.39,1.39,0,0,1,64,28.19v7.62A1.39,1.39,0,0,1,62.47,37Z" />
    <path fill="#fff"
      d="M62.47,64H1.53A1.39,1.39,0,0,1,0,62.81V55.19A1.39,1.39,0,0,1,1.53,54H62.47A1.39,1.39,0,0,1,64,55.19v7.62A1.39,1.39,0,0,1,62.47,64Z" />
    <path fill="#fff"
      d="M62.47,10H1.53A1.39,1.39,0,0,1,0,8.81V1.19A1.39,1.39,0,0,1,1.53,0H62.47A1.39,1.39,0,0,1,64,1.19V8.81A1.39,1.39,0,0,1,62.47,10Z" />
  </g>
</svg>