<svg xmlns="http://www.w3.org/2000/svg" viewBox="0 0 95.39 124">
  <path fill="#fff"
    d="M88.74,0H26.21a6.65,6.65,0,0,0-6.65,6.65V55a1,1,0,0,0,1,1h6a1,1,0,0,0,1-1V10.26A2.26,2.26,0,0,1,29.82,8H85.13a2.26,2.26,0,0,1,2.26,2.26V113.74A2.26,2.26,0,0,1,85.13,116H29.82a2.26,2.26,0,0,1-2.26-2.26V68.91a1,1,0,0,0-1-1h-6a1,1,0,0,0-1,1v48.44A6.65,6.65,0,0,0,26.21,124H88.74a6.65,6.65,0,0,0,6.65-6.65V6.65A6.65,6.65,0,0,0,88.74,0Z" />
  <rect fill="#fff" y="58" width="39.77" height="8" rx="0.95" />
  <path fill="#fff"
    d="M74.76,60.6,44.35,43a1.61,1.61,0,0,0-2.42,1.4V79.56A1.61,1.61,0,0,0,44.35,81L74.76,63.4A1.61,1.61,0,0,0,74.76,60.6Z" />
</svg>