<svg xmlns="http://www.w3.org/2000/svg" viewBox="0 0 114.51 124">
  <path fill="#fff"
    d="M11.41,81.81C16.9,78.93,24.5,77,31.17,75.37c4.12-1,9.21-2.29,10.33-3.16a21.61,21.61,0,0,0,.93-5.62,32.8,32.8,0,0,1-2.82-2.5c-4.91-1.67-11-2.52-11.42-3.65-.21-.62-.84-3.24-.32-3.64a10.18,10.18,0,0,0,4.2-7.26,8.09,8.09,0,0,1-2.38-2.91,14.48,14.48,0,0,0-1.25-1.92,12.06,12.06,0,0,1-2.43-9c.37-2.19,1.19-3.47,2.44-3.82-.21-1.55-.35-3.05-.41-4.5a12.1,12.1,0,0,0-13.36,2.06c-3.33,3.08-3.85,7.66-3,12.46.28,1.6-.86-1.28-1.27,1.19a4.68,4.68,0,0,0,.93,3.45c.73.89,1.18,2.32,1.8,2.1s.35-.41.49.49c.6,4,1.91,5.79,4.27,7.63.52.4-.11,3-.32,3.64-.64,1.87-17,3-17.53,8.29C-.32,72.42,4,78.45,11.41,81.81Z" />
  <path fill="#fff"
    d="M114.48,67.26c-.68-7.45-23.68-9-24.57-11.62-.3-.87-1.18-4.54-.45-5.11,3.3-2.58,5.14-5.1,6-10.7.19-1.26-.21-1,.68-.68s1.5-1.7,2.52-2.94A6.56,6.56,0,0,0,100,31.37c-.58-3.46-2.17.57-1.79-1.67,1.15-6.73.43-13.15-4.24-17.47A16.89,16.89,0,0,0,76.55,8.78c4.22,5.79,5.69,13.54,4.38,23.14,1.26.35,2.07,1.63,2.44,3.82a12.06,12.06,0,0,1-2.43,9,15.56,15.56,0,0,0-1.25,1.92c-.87,1.47-1.77,3-3.3,3.29C75,58.63,71.82,62.72,67,66.59a21.66,21.66,0,0,0,.94,5.62c1.11.87,6.2,2.14,10.32,3.16,8.27,2.06,18,4.48,23.3,8.7C110,79.22,114.91,71.91,114.48,67.26Z" />
  <path fill="#fff"
    d="M54.69,124C24.57,124,4.8,102.16,5.84,90.79S42,77.07,43.32,73.07c.45-1.33,1.79-6.92.69-7.79-5-3.93-7.85-7.77-9.14-16.32-.29-1.92.32-1.52-1-1S31.54,45.33,30,43.44a10,10,0,0,1-2-7.37c.88-5.29,3.31.85,2.73-2.55C29,23.25,30.07,13.46,37.19,6.87a25.74,25.74,0,0,1,35,0c7.12,6.59,8.22,16.38,6.46,26.65-.58,3.4,1.86-2.74,2.74,2.55a10.06,10.06,0,0,1-2,7.37c-1.56,1.89-2.53,5-3.84,4.48s-.75-.88-1,1c-1.29,8.55-4.09,12.39-9.13,16.32-1.11.87.23,6.46.68,7.79,1.36,4,36.44,6.36,37.48,17.72S84.81,124,54.69,124Z" />
</svg>