<svg xmlns="http://www.w3.org/2000/svg" viewBox="0 0 101.87 124">
  <g>
    <path fill="#fff" d="M79.27,100.66v15c7.17-4.35,12.52-9.82,15.58-15Z" />
    <path fill="#fff" d="M79.27,88H96.69c-2.68-4-10-6.69-17.42-8.75Z" />
    <path fill="#fff"
      d="M66.57,100.66H45.28a3.3,3.3,0,0,1-3.3-3.3V91.27A3.31,3.31,0,0,1,45.28,88H66.57v-12c-3.51-1-6-1.86-6.31-2.87-.45-1.33-1.79-6.92-.68-7.79,5-3.93,7.84-7.77,9.13-16.32.3-1.92-.32-1.52,1.05-1S72,45.33,73.6,43.44a10.06,10.06,0,0,0,2-7.37c-.88-5.29-3.32.85-2.74-2.55,1.76-10.27.66-20.06-6.46-26.65a25.74,25.74,0,0,0-35,0c-7.12,6.59-8.22,16.38-6.47,26.65.58,3.4-1.85-2.74-2.73,2.55a10,10,0,0,0,2,7.37c1.55,1.89,2.52,5,3.84,4.48s.75-.88,1,1c1.29,8.55,4.09,12.39,9.14,16.32,1.1.87-.24,6.46-.69,7.79C36.16,77.07,1.08,79.43,0,90.79S18.77,124,48.89,124a59.6,59.6,0,0,0,17.68-2.65Z" />
    <path fill="#fff"
      d="M100.56,90H77.27V66.67a1.3,1.3,0,0,0-1.3-1.3H69.88a1.31,1.31,0,0,0-1.31,1.3V90H45.28A1.31,1.31,0,0,0,44,91.27v6.09a1.3,1.3,0,0,0,1.3,1.3H68.57V122a1.31,1.31,0,0,0,1.31,1.31H76a1.31,1.31,0,0,0,1.3-1.31V98.66h23.29a1.31,1.31,0,0,0,1.31-1.3V91.27A1.31,1.31,0,0,0,100.56,90Z" />
  </g>
</svg>